# xmcd
#
# Track frame offsets:
#	150
#	24929
#	43604
#	74969
#	97902
#	118241
#	141861
#	170137
#	191045
#	215443
#	246596
#	269517
#
# Disc length: 3944 seconds
#
# Revision: 0
# Processed by: cddbd v1.5.2PL0 Copyright (c) Steve Scherf et al.
# Submitted via: EasyCDDAExtractor 10.0.3.1
#
DISCID=c10f660c
DTITLE=Nick Woodland - The Current That Flows
DYEAR=2006
DGENRE=Blues
TTITLE0=Keep The Love
TTITLE1=Like A Rose
TTITLE2=New Pony
TTITLE3=Spodie
TTITLE4=Tender Trap
TTITLE5=Military Kids
TTITLE6=Somthing I Heard
TTITLE7=Crackin´Up
TTITLE8=Motherless Children
TTITLE9=Thanks To You
TTITLE10=Tailspin
TTITLE11=When Tears Are Near
EXTD=
EXTT0=
EXTT1=
EXTT2=
EXTT3=
EXTT4=
EXTT5=
EXTT6=
EXTT7=
EXTT8=
EXTT9=
EXTT10=
EXTT11=
PLAYORDER=
